# File created by Blade
# Date/Time:  Wed Apr 08 16:20:06 2015
#---------------------------------------------------------
:version 1.10
:name HOM
:units
  mass 1.0
  length 1.000000
  angle deg
:documentation
     Acclaim Skeleton File
:root
   axis xyz
   order TX TY TZ RX RY RZ
   position 0.000000 0.000000 0.000000
   orientation 0 0 0
:bonedata
   begin
      id 1
      name Spine_dum
      direction 0.000000 1.000000 0.000000
      length 4.885285
      axis 0.0 0.0 0.0 xyz
   end
   begin
      id 2
      name LeftUpLeg_dum
      direction 1.000000 0.000000 0.000000
      length 2.672193
      axis 0.0 0.0 0.0 xyz
   end
   begin
      id 3
      name RightUpLeg_dum
      direction -1.000000 0.000000 0.000000
      length 2.672193
      axis 0.0 0.0 0.0 xyz
   end
   begin
      id 4
      name Spine
      direction 0.000000 1.000000 0.000000
      length 0.000000
      axis 0.0 0.0 0.0 xyz
      dof rx ry rz
   end
   begin
      id 5
      name Spine_dum1
      direction 0.000000 1.000000 0.000000
      length 16.494159
      axis 0.0 0.0 0.0 xyz
   end
   begin
      id 6
      name Spine_dum2
      direction 0.000000 1.000000 0.000000
      length 10.663448
      axis 0.0 0.0 0.0 xyz
   end
   begin
      id 7
      name Spine_dum3
      direction 0.000000 1.000000 0.000000
      length 10.663448
      axis 0.0 0.0 0.0 xyz
   end
   begin
      id 8
      name Head
      direction 0.000000 1.000000 0.000000
      length 4.527550
      axis 0.0 0.0 0.0 xyz
      dof rx ry rz
   end
   begin
      id 9
      name LeftShoulder
      direction 1.000000 0.000000 0.000000
      length 7.531907
      axis 0.0 0.0 -90.0 xyz
      dof rx ry rz
   end
   begin
      id 10
      name LeftArm
      direction 1.000000 0.000000 0.000000
      length 10.229199
      axis 0.0 0.0 -90.0 xyz
      dof rx ry rz
   end
   begin
      id 11
      name LeftForeArm
      direction 1.000000 0.000000 0.000000
      length 8.673495
      axis 0.0 0.0 -90.0 xyz
      dof ry rz rx
   end
   begin
      id 12
      name LeftHand
      direction 0.000000 0.000000 0.000000
      length 0.000000
      axis 0.0 0.0 -90.0 xyz
      dof rx ry rz
   end
   begin
      id 13
      name LeftHand_dum1
      direction 0.000000 0.000000 0.000000
      length 0.000000
      axis 0.0 0.0 -90.0 xyz
   end
   begin
      id 14
      name LeftHand_dum2
      direction 1.000000 0.000000 0.000000
      length 3.937000
      axis 0.0 0.0 -90.0 xyz
   end
   begin
      id 15
      name LeftHandThumb1
      direction 0.000000 0.000000 1.000000
      length 3.937000
      axis 0.0 0.0 -90.0 xyz
      dof rx rz ry
   end
   begin
      id 16
      name RightShoulder
      direction -1.000000 0.000000 0.000000
      length 7.531907
      axis 0.0 0.0 90.0 xyz
      dof rx ry rz
   end
   begin
      id 17
      name RightArm
      direction -1.000000 0.000000 0.000000
      length 10.229199
      axis 0.0 0.0 90.0 xyz
      dof rx ry rz
   end
   begin
      id 18
      name RightForeArm
      direction -1.000000 0.000000 0.000000
      length 8.673495
      axis 0.0 0.0 90.0 xyz
      dof ry rz rx
   end
   begin
      id 19
      name RightHand
      direction 0.000000 0.000000 0.000000
      length 0.000000
      axis 0.0 0.0 90.0 xyz
      dof rx ry rz
   end
   begin
      id 20
      name RightHand_dum1
      direction 0.000000 0.000000 0.000000
      length 0.000000
      axis 0.0 0.0 90.0 xyz
   end
   begin
      id 21
      name RightHand_dum2
      direction -1.000000 0.000000 0.000000
      length 3.937000
      axis 0.0 0.0 90.0 xyz
   end
   begin
      id 22
      name RightHandThumb1
      direction 0.000000 0.000000 1.000000
      length 3.937000
      axis 0.0 0.0 90.0 xyz
      dof rx rz ry
   end
   begin
      id 23
      name LeftUpLeg
      direction 0.000000 -1.000000 0.000000
      length 16.263388
      axis 0.0 0.0 0.0 xyz
      dof rx ry rz
   end
   begin
      id 24
      name LeftLeg
      direction 0.000000 -1.000000 0.000000
      length 14.328163
      axis 0.0 0.0 0.0 xyz
      dof rx ry rz
   end
   begin
      id 25
      name LeftFoot
      direction 0.000000 -0.258819 0.965926
      length 5.031290
      axis 15.0 0.0 0.0 xyz
      dof rx ry rz
   end
   begin
      id 26
      name LeftToeBase
      direction 0.000000 0.000000 1.000000
      length 2.952750
      axis 0.0 0.0 0.0 xyz
      dof rx ry rz
   end
   begin
      id 27
      name RightUpLeg
      direction 0.000000 -1.000000 0.000000
      length 16.263388
      axis 0.0 0.0 0.0 xyz
      dof rx ry rz
   end
   begin
      id 28
      name RightLeg
      direction 0.000000 -1.000000 0.000000
      length 14.328163
      axis 0.0 0.0 0.0 xyz
      dof rx ry rz
   end
   begin
      id 29
      name RightFoot
      direction 0.000000 -0.258819 0.965926
      length 5.031290
      axis 15.0 0.0 0.0 xyz
      dof rx ry rz
   end
   begin
      id 30
      name RightToeBase
      direction 0.000000 0.000000 1.000000
      length 2.952750
      axis 0.0 0.0 0.0 xyz
      dof rx ry rz
   end
:hierarchy
   begin
      root Spine_dum LeftUpLeg_dum RightUpLeg_dum
      Spine_dum Spine
      LeftUpLeg_dum LeftUpLeg
      RightUpLeg_dum RightUpLeg
      Spine Spine_dum1 Spine_dum2 Spine_dum3
      Spine_dum1 Head
      Spine_dum2 LeftShoulder
      Spine_dum3 RightShoulder
      LeftShoulder LeftArm
      LeftArm LeftForeArm
      LeftForeArm LeftHand
      LeftHand LeftHand_dum1 LeftHand_dum2
      LeftHand_dum1 LeftHandThumb1
      RightShoulder RightArm
      RightArm RightForeArm
      RightForeArm RightHand
      RightHand RightHand_dum1 RightHand_dum2
      RightHand_dum1 RightHandThumb1
      LeftUpLeg LeftLeg
      LeftLeg LeftFoot
      LeftFoot LeftToeBase
      RightUpLeg RightLeg
      RightLeg RightFoot
      RightFoot RightToeBase
   end

# File created by Blade
# Date/Time:  Wed Apr 08 16:19:59 2015
# Frame Rate: 120.000 fps
#------------------------------------------------------
:FULLY-SPECIFIED
:DEGREES
227
root 1.493560 32.066628 -5.146205 12.309458 -51.417293 4.278515
Spine -6.430608 -11.286340 -4.660076
Head 20.643603 -29.043060 10.494703
LeftShoulder -16.405123 46.851544 11.286223
LeftArm 60.683307 21.229673 -59.563975
LeftForeArm 7.990003 0.000000 24.346040
LeftHand 6.748344 -0.000000 8.992801
LeftHandThumb1 -26.253704 0.000000 33.147579
RightShoulder -8.492563 -12.481598 -13.359320
RightArm 12.228886 -8.764242 88.379876
RightForeArm 2.648458 -0.000000 13.579823
RightHand 4.351940 0.000000 -0.515998
RightHandThumb1 -24.326973 -0.000000 -32.862282
LeftUpLeg -5.584384 16.345423 -4.414747
LeftLeg -4.583976 -0.000000 0.000000
LeftFoot -16.258503 32.037093 -22.364908
LeftToeBase -1.649213 -0.000000 0.000000
RightUpLeg -38.829929 -12.791398 -6.010412
RightLeg 12.117916 -0.000000 -0.000000
RightFoot -10.548529 -19.846983 12.109525
RightToeBase -1.500844 -0.000000 0.000000
228
root 1.312001 32.043582 -5.125581 12.306983 -51.938314 4.338459
Spine -6.472935 -11.379144 -4.523413
Head 20.598843 -28.728527 10.464709
LeftShoulder -16.328024 46.850548 11.378579
LeftArm 60.886443 21.279703 -59.319321
LeftForeArm 8.036010 0.000000 24.401317
LeftHand 7.180822 -0.000000 8.624845
LeftHandThumb1 -26.253704 0.000000 33.147579
RightShoulder -8.507996 -12.486765 -13.356149
RightArm 12.171291 -8.376210 88.325064
RightForeArm 2.478828 -0.000000 13.842563
RightHand 4.415961 -0.000000 -0.798796
RightHandThumb1 -24.326973 -0.000000 -32.862282
LeftUpLeg -5.552690 16.790290 -4.341844
LeftLeg -4.170174 -0.000000 0.000000
LeftFoot -16.330001 32.288377 -22.055106
LeftToeBase -1.546326 -0.000000 0.000000
RightUpLeg -38.910355 -13.000305 -5.753505
RightLeg 11.585333 -0.000000 -0.000000
RightFoot -10.670239 -20.209046 12.201362
RightToeBase -1.100023 -0.000000 0.000000
229
root 1.132248 32.019869 -5.105008 12.288289 -52.448262 4.456330
Spine -6.535800 -11.484557 -4.405785
Head 20.529066 -28.412182 10.414141
LeftShoulder -16.254819 46.840540 11.472951
LeftArm 61.063840 21.308439 -59.142229
LeftForeArm 8.089148 -0.000000 24.510671
LeftHand 7.240304 -0.000000 9.081387
LeftHandThumb1 -26.253704 0.000000 33.147579
RightShoulder -8.497856 -12.465492 -13.374852
RightArm 12.101502 -8.048427 88.260402
RightForeArm 2.389975 -0.000000 14.107193
RightHand 4.440576 -0.000000 -0.992467
RightHandThumb1 -24.326973 -0.000000 -32.862282
LeftUpLeg -5.423292 16.859818 -4.237262
LeftLeg -3.966063 -0.000000 0.000000
LeftFoot -16.401204 32.732530 -21.952556
LeftToeBase -1.956334 -0.000000 0.000000
RightUpLeg -39.009627 -13.165945 -5.548237
RightLeg 11.118312 -0.000000 -0.000000
RightFoot -10.735487 -20.587553 12.252224
RightToeBase -0.876899 -0.000000 0.000000
230
root 0.945045 31.996087 -5.085614 12.276140 -52.898208 4.551772
Spine -6.579419 -11.650181 -4.257157
Head 20.452270 -28.072304 10.383951
LeftShoulder -16.229871 46.871275 11.514271
LeftArm 61.294193 21.269008 -58.990268
LeftForeArm 8.041107 -0.000000 24.575553
LeftHand 7.571403 -0.000000 9.765778
LeftHandThumb1 -26.253704 0.000000 33.147579
RightShoulder -8.473858 -12.451774 -13.388895
RightArm 12.028676 -7.722656 88.194699
RightForeArm 2.237458 -0.000000 14.399931
RightHand 4.477106 0.000000 -1.042188
RightHandThumb1 -24.326973 -0.000000 -32.862282
LeftUpLeg -5.272629 16.831984 -4.073916
LeftLeg -3.721715 -0.000000 0.000000
LeftFoot -16.807192 33.049600 -22.341297
LeftToeBase -1.438098 -0.000000 0.000000
RightUpLeg -39.094740 -13.336847 -5.325768
RightLeg 10.774538 -0.000000 -0.000000
RightFoot -10.785398 -20.819884 12.294831
RightToeBase -0.789703 -0.000000 0.000000
231
root 0.749407 31.971192 -5.065408 12.265232 -53.341555 4.620473
Spine -6.610004 -11.785195 -4.093974
Head 20.372313 -27.749795 10.348526
LeftShoulder -16.135526 46.856874 11.637009
LeftArm 61.438553 21.272643 -58.907382
LeftForeArm 8.015440 -0.000000 24.602134
LeftHand 7.507028 0.000000 9.298057
LeftHandThumb1 -26.253704 0.000000 33.147579
RightShoulder -8.480436 -12.456510 -13.400661
RightArm 11.984800 -7.435918 88.120893
RightForeArm 2.135778 0.000000 14.647833
RightHand 4.578957 -0.000000 -1.266600
RightHandThumb1 -24.326973 -0.000000 -32.862282
LeftUpLeg -5.110295 16.860538 -3.892769
LeftLeg -3.447589 -0.000000 0.000000
LeftFoot -16.852948 33.439226 -22.296113
LeftToeBase -1.665829 -0.000000 0.000000
RightUpLeg -39.171698 -13.540216 -5.045000
RightLeg 10.561422 -0.000000 -0.000000
RightFoot -10.788432 -20.927313 12.456118
RightToeBase -1.108999 -0.000000 0.000000
232
root 0.542789 31.946072 -5.045207 12.277175 -53.797771 4.619500
Spine -6.611469 -11.873550 -3.903920
Head 20.282931 -27.475540 10.336280
LeftShoulder -16.004494 46.786949 11.787144
LeftArm 61.463885 21.270348 -58.932590
LeftForeArm 7.898461 -0.000000 24.665624
LeftHand 7.170777 -0.000000 9.186669
LeftHandThumb1 -26.253704 0.000000 33.147579
RightShoulder -8.479186 -12.450377 -13.405597
RightArm 11.891078 -7.173482 88.040002
RightForeArm 2.133230 0.000000 14.941279
RightHand 4.516248 -0.000000 -1.422467
RightHandThumb1 -24.326973 -0.000000 -32.862282
LeftUpLeg -4.894732 16.948541 -3.650339
LeftLeg -3.180267 -0.000000 0.000000
LeftFoot -16.994295 33.793697 -22.380576
LeftToeBase -1.811103 -0.000000 0.000000
RightUpLeg -39.165063 -13.643039 -4.765049
RightLeg 10.385861 -0.000000 -0.000000
RightFoot -10.684773 -21.049408 12.261014
RightToeBase -1.280675 -0.000000 0.000000
233
root 0.332090 31.920884 -5.029362 12.333675 -54.183315 4.609134
Spine -6.637023 -12.046938 -3.681697
Head 20.168087 -27.139079 10.322501
LeftShoulder -15.872330 46.719212 11.940964
LeftArm 61.418331 21.209476 -59.099490
LeftForeArm 7.820148 -0.000000 24.739374
LeftHand 6.963373 -0.000000 9.464929
LeftHandThumb1 -26.253704 0.000000 33.147579
RightShoulder -8.480908 -12.450372 -13.408343
RightArm 11.850045 -6.977553 87.952834
RightForeArm 2.164527 -0.000000 15.166182
RightHand 4.552796 -0.000000 -1.471857
RightHandThumb1 -24.326973 -0.000000 -32.862282
LeftUpLeg -4.731655 16.910009 -3.391666
LeftLeg -2.877446 -0.000000 0.000000
LeftFoot -17.290527 34.182335 -22.668894
LeftToeBase -1.735880 -0.000000 0.000000
RightUpLeg -39.198965 -13.801606 -4.428012
RightLeg 10.335899 -0.000000 -0.000000
RightFoot -10.635231 -21.068566 12.210863
RightToeBase -1.213312 -0.000000 0.000000
234
root 0.111454 31.894783 -5.011137 12.377275 -54.562930 4.583966
Spine -6.649533 -12.171043 -3.456542
Head 20.066677 -26.880241 10.301089
LeftShoulder -15.739965 46.644648 12.101654
LeftArm 61.370410 21.171050 -59.272462
LeftForeArm 7.720074 0.000000 24.803226
LeftHand 7.110936 -0.000000 9.396817
LeftHandThumb1 -26.253704 0.000000 33.147579
RightShoulder -8.500808 -12.453172 -13.419899
RightArm 11.769467 -6.710463 87.883563
RightForeArm 2.010417 -0.000000 15.384715
RightHand 4.803315 -0.000000 -1.636098
RightHandThumb1 -24.326973 -0.000000 -32.862282
LeftUpLeg -4.530995 16.972866 -3.114975
LeftLeg -2.561415 -0.000000 0.000000
LeftFoot -17.657054 34.446175 -23.115739
LeftToeBase -1.316983 -0.000000 0.000000
RightUpLeg -39.165079 -13.900039 -4.106486
RightLeg 10.375021 -0.000000 -0.000000
RightFoot -10.589108 -21.140711 12.086946
RightToeBase -1.349817 -0.000000 0.000000
235
root -0.115354 31.867101 -4.993918 12.484052 -54.926566 4.483219
Spine -6.668956 -12.316616 -3.153175
Head 19.977688 -26.593898 10.187334
LeftShoulder -15.670605 46.651266 12.161457
LeftArm 61.305916 21.013308 -59.528266
LeftForeArm 7.793365 -0.000000 24.961284
LeftHand 7.215708 -0.000000 9.213527
LeftHandThumb1 -26.253704 0.000000 33.147579
RightShoulder -8.488295 -12.466218 -13.473328
RightArm 11.714662 -6.440793 87.855486
RightForeArm 2.059939 0.000000 15.581153
RightHand 4.850489 -0.000000 -1.735144
RightHandThumb1 -24.326973 -0.000000 -32.862282
LeftUpLeg -4.296454 16.956449 -2.762971
LeftLeg -2.295186 -0.000000 0.000000
LeftFoot -17.762197 34.748275 -23.347331
LeftToeBase -1.500256 -0.000000 0.000000
RightUpLeg -39.129472 -13.937641 -3.758486
RightLeg 10.574668 -0.000000 -0.000000
RightFoot -10.541392 -21.223875 12.012930
RightToeBase -1.506916 -0.000000 0.000000
236
root -0.352868 31.838763 -4.979559 12.625697 -55.270417 4.342217
Spine -6.697540 -12.497012 -2.838963
Head 19.866344 -26.259286 10.160437
LeftShoulder -15.682010 46.717006 12.201005
LeftArm 61.372411 20.941888 -59.625159
LeftForeArm 7.480745 -0.000000 25.009354
LeftHand 7.161010 -0.000000 9.499147
LeftHandThumb1 -26.253704 0.000000 33.147579
RightShoulder -8.443935 -12.471753 -13.513605
RightArm 11.601993 -6.295345 87.789254
RightForeArm 2.073798 -0.000000 15.862796
RightHand 4.757468 -0.000000 -1.970217
RightHandThumb1 -24.326973 -0.000000 -32.862282
LeftUpLeg -4.056235 16.915500 -2.386787
LeftLeg -2.028974 -0.000000 0.000000
LeftFoot -18.078296 35.214475 -23.810835
LeftToeBase -1.298021 -0.000000 0.000000
RightUpLeg -39.058777 -13.919734 -3.390150
RightLeg 10.872486 -0.000000 -0.000000
RightFoot -10.636926 -21.334485 12.266537
RightToeBase -1.630144 -0.000000 0.000000
237
root -0.600493 31.810534 -4.965864 12.788585 -55.605867 4.154589
Spine -6.715752 -12.612428 -2.497265
Head 19.772770 -25.991759 10.055817
LeftShoulder -15.588686 46.712804 12.294974
LeftArm 61.236395 20.799894 -59.922146
LeftForeArm 7.525290 -0.000000 25.204380
LeftHand 7.117616 -0.000000 9.441544
LeftHandThumb1 -26.253704 0.000000 33.147579
RightShoulder -8.465595 -12.511506 -13.544342
RightArm 11.537170 -6.174334 87.722976
RightForeArm 2.137118 0.000000 16.051622
RightHand 4.882107 -0.000000 -2.120927
RightHandThumb1 -24.326973 -0.000000 -32.862282
LeftUpLeg -3.797420 16.879584 -1.964927
LeftLeg -1.722193 -0.000000 0.000000
LeftFoot -18.345064 35.566315 -24.232918
LeftToeBase -0.805700 -0.000000 0.000000
RightUpLeg -38.951228 -13.910032 -2.961406
RightLeg 11.230435 -0.000000 -0.000000
RightFoot -10.664764 -21.492896 12.293766
RightToeBase -1.158537 -0.000000 0.000000
238
root -0.843649 31.784545 -4.966462 13.177961 -55.715508 3.817693
Spine -6.802287 -12.928382 -1.985587
Head 19.619576 -25.709310 9.969873
LeftShoulder -15.477245 46.625947 12.411535
LeftArm 61.067846 20.706315 -60.217203
LeftForeArm 7.320733 -0.000000 25.325600
LeftHand 7.300568 0.000000 9.435784
LeftHandThumb1 -26.253704 0.000000 33.147579
RightShoulder -8.437039 -12.510271 -13.611455
RightArm 11.452446 -5.908517 87.693081
RightForeArm 1.874061 -0.000000 16.225770
RightHand 4.884869 -0.000000 -2.031292
RightHandThumb1 -24.326973 -0.000000 -32.862282
LeftUpLeg -3.731929 16.591963 -1.430845
LeftLeg -1.269577 -0.000000 0.000000
LeftFoot -18.852570 35.830243 -24.890878
LeftToeBase -0.879756 -0.000000 0.000000
RightUpLeg -38.922959 -13.980989 -2.414588
RightLeg 11.614868 -0.000000 -0.000000
RightFoot -10.581122 -21.725349 12.316090
RightToeBase -0.967861 -0.000000 0.000000
